<svg xmlns="http://www.w3.org/2000/svg" width="343" height="317" viewBox="0 0 343 317">
  <defs>
    <style>
      .cls-2 {
        fill-rule: evenodd;
      }
    </style>
  </defs>
  <path class="cls-2" d="M-391.97,295.1s6.862-1,7.86-6.987,0.468-21.521-9.606-36.679c-5.258-10.37-24.69-34.751-72.486-40.172-6-2.075-57.711-6.072-82.965,2.619-20.237,5.192-40.458,17.807-57.639,42.793-7.452,12.99-19.373,38.8,7.86,37.553C-508.335,295.582-391.97,295.1-391.97,295.1ZM-382,316c16.1-.1,24.147-3.992,29-18,1.7-8.219,1.469-21.785-8-44-7.791-13.142-20.279-47.73-86-64-30.757-6.987-78.231-7.3-114,2-36.755,10.431-61.386,33.679-77,66-10.814,19.2-17.8,52.933,13,57C-588.648,317.429-394.5,316.5-382,316ZM-500,25.191A58.809,58.809,0,0,1-441.191,84,58.809,58.809,0,0,1-500,142.809,58.809,58.809,0,0,1-558.809,84,58.809,58.809,0,0,1-500,25.191Zm0-25.3A84.107,84.107,0,0,1-415.893,84,84.107,84.107,0,0,1-500,168.107,84.107,84.107,0,0,1-584.107,84,84.107,84.107,0,0,1-500-.107Z"/>
  <path class="cls-2" d="M-230.33,0c73.139-1.014,139.154,61.127,122.854,140.487A124.725,124.725,0,0,1-125.7,185.2c-3.773,4.875-3.53,5.924-7.3,10.8,25.4,28.15,59.6,65.85,85,94,4.448,5.306,14.26,17.1,2.089,26.026C-54.481,321.217-63.063,312.985-68,308c-25.12-27.966-59.88-66.034-85-94-4.509,3.128-5.459,3.676-9.968,6.8-12.249,7.433-26.728,12.79-43.344,15.733-87.538,15.5-162.383-73.79-130.308-158.151C-323.3,43.35-296.982,16.673-260.147,5.244-251.046,2.42-241.113.062-230.33,0Zm-0.265,26.1a74.794,74.794,0,0,0-24.3,4.808c-27.8,10.147-47.565,29.9-57.714,57.7-22.568,61.811,32.119,131.378,94.67,122.989,38.8-5.2,64.846-24.307,78.217-54.662C-109.291,87.852-162.773,25.745-230.595,26.1Z"/>
  <path class="cls-2" d="M15.141,100.67l1.411-19.755s0.038-9.562,11.289-8.467c12.662-.051,30.78.265,32.455,0,3.088-.5,5.036,1.012,11.289-5.644,19.788-19.831,63.543-63.464,63.5-63.5,0,0,5.2-3.087,7.055-2.822a53.786,53.786,0,0,1,5.645,0S151.5,0.621,153.429,3.3s63.5,62.089,63.5,62.089A17.554,17.554,0,0,0,231,73c4.958-.012,11.438.042,13,0,2.111,0.127,6.167-.978,0-8-13.341-13.158-32.862-31.822-32-31-7.232-8.908-10-2.893-16.238-1.063C188.927,34.569,180.214,32.966,182,23c1.944-7.092,15.616-13.644,18.73-15.626C205.2,4.03,213,6,213,6c5.418,3.547,37.914,38.914,56,57,4.321,5.2,11.649,9.912,15,10s22.622-.64,30.3-0.552c10.848-.441,11.024,9.172,11.289,9.878s1.751,76.007,16.933,218.721c0.882,8.29,3.374,15.2-7.055,15.522-4.771.479-318.028,1.058-325.966,1.411s-10.282-4.4-9.878-11.289C-0.037,300.82,15.141,100.67,15.141,100.67ZM34.069,294.612c-4.711-.205-10.48,1.481-9.177-9.177C26.359,274.245,38,100.589,38,100.589s-0.32-9.621,10.488-9.176c10.808,0.936,242.528,0,242.528,0s10.652-1.065,10.488,7.866c-0.164,7.211,12.782,171,14.421,184.846-0.082,5.9,1.564,8.65-7.866,10.488C174.247,294.515,36.547,294.591,34.069,294.612Zm71.478-165.788c1.75,10.625,3.589,31.733,10.81,48.648,4.758,12.95,25.054,40.933,56.757,39.189C193.065,216.638,215.1,204.734,226,178c6.347-18.872,8-33.579,8-51,0.442-3.814-4.59-5.967-10-6-5.279-.032-11.61,1.919-12,6-2.7,18.006-2.928,48.345-22,62-12.812,7.16-21.253,7.773-34,1-10.29-6.711-21.963-14.963-28-63,1.255-3.2-6.516-6.881-11-6C110.309,120.434,106.547,123.2,105.547,128.824ZM120.63,72.17s-8.256-.018-11.537,0c-6.706.252-12.552-1.037-5.769-9.23,2.773-3,29.863-28.28,35.766-34.612,3.49-3.575,10.787-2.879,12.691,0,21.609,21.127,32.4,30.82,36.874,35.716,4.36,4.424,1.7,7.844-3.416,8.126-6.929.283-18.459,0-18.459,0H120.63Z"/>
</svg>
