<svg xmlns="http://www.w3.org/2000/svg" width="500" height="345" viewBox="0 0 500 345">
  <defs>
    <style>
      .cls-1 {
        fill: #999;
        fill-rule: evenodd;
      }
    </style>
  </defs>
  <path class="cls-1" d="M107.7,0H377.858c14.523,0,26.239-.427,40.915,2.4,19.778,4.97,33.955,13.748,47.533,24.643,16.66,13.369,26.862,34.8,31.889,59.8,1.573,12.021,1.2,24.777,1.2,36.964,0,24.34,1.034,51.035.3,76.634,0.083,10.345-.162,22.538,0,33.358a149.24,149.24,0,0,1-1.5,24.342c-3.941,20.333-11.129,35.469-21.661,48.985-13.347,17.129-33.451,29.335-57.761,35.462-13.184,3.323-30.641,2.4-46.932,2.4H160.951l-67.088-.3c-28.869-4.886-52.422-14.754-67.389-33.358C15.259,297.4,6.426,282.886,1.805,262.056c-2.637-11.888-1.5-27.488-1.5-41.472V145.453c0-37.516-1.422-69.1,12.335-92.561C25.654,30.689,44.182,15.076,69.8,5.409,84.388-.712,107.7,0,107.7,0Zm78.219,101.577c-5.106.662-5.267,5.165-5.115,12.922,0.012,6.585.186,13.3,0.3,19.234v77.835c0,4.8.126,11.134,0,17.13,0.118,5.61-.29,12.354,2.708,14.124,3.262,2.787,9.562-1.231,16.546-4.808,5.679-2.909,11.5-5.732,14.44-7.213,27.274-12.72,55.158-25.145,82.431-37.865,3.015-1.5,9.737-4.872,16.847-7.814,8.273-3.878,16.033-6.205,14.441-11.72-0.164-3.259-6.719-5.876-13.839-9.317-8.471-4.094-18.095-8.263-20.457-9.616l-74.007-36.664c-4.736-2.408-14.2-7.272-21.962-11.119C193.115,104.139,189.349,101.922,185.921,101.577Z"/>
</svg>
