<svg xmlns="http://www.w3.org/2000/svg" width="543" height="1000" viewBox="0 0 543 1000">
  <defs>
    <style>
      .cls-1 {
        fill: #999;
        fill-rule: evenodd;
      }
    </style>
  </defs>
  <path class="cls-1" d="M364,359H480c14.31,0,33.82-1.653,47,3,11.091,7.157,9,24.714,9,43V513c0,14.864,2.5,36.176-4,45-7.066,9.588-28.511,7-45,7H364V956c-0.666,12.717,1.43,28.356-4,36-7.592,10.69-28.849,8-47,8H168c-5.9-1.655-12.928-7.51-15-13-1.871-7.273-1-21-1-30V565H52c-10.665,0-31.078,2.846-38-2-16.742-5.361-14-31.17-14-53V414c0-13.449-1.464-32.86,3-43,2.439-5.541,7.359-10.807,16-11,43.728-1.8,87.621-.978,133-1V276c0-14.027-1.661-31.741,1-44V216c2-9.084,1.577-19.444,4-29,18.476-72.855,49.6-121.668,106-156,22.968-13.981,49.52-23.552,81-28,17.9-3.164,45.63-3,66-3h78c11.5,0,32.285-1.266,42,2,14.639,4.737,13,22.619,13,42v94c0,12.667.818,28.679-1,42-5.532,15.5-22.824,14-44,14-32.53,0-74.833-4.675-101,4-11.191,3.71-21.908,12.116-27,22-6.726,13.056-6,32.458-6,52v87Z"/>
</svg>
