<?xml version="1.0" encoding="utf-8"?>
<!-- Generator: Adobe Illustrator 24.3.0, SVG Export Plug-In . SVG Version: 6.00 Build 0)  -->
<svg version="1.1" id="Шар_1" xmlns="http://www.w3.org/2000/svg" xmlns:xlink="http://www.w3.org/1999/xlink" x="0px" y="0px"
	 viewBox="0 0 512 512" style="enable-background:new 0 0 512 512;" xml:space="preserve">
<style type="text/css">
	.st0{fill:none;stroke:#A0A0A0;stroke-width:32;stroke-linecap:round;stroke-linejoin:round;}
</style>
<path class="st0" d="M351,107.4c-59.4,0-88.6,58.5-88.6,58.5s-29.3-58.5-88.6-58.5c-48.3,0-86.5,40.4-87,88.5
	c-1,100,79.3,171.1,167.4,230.9c5,3.4,11.5,3.4,16.5,0C358.7,367.1,439,296,438,196C437.5,147.8,399.3,107.4,351,107.4z"/>
<path class="st0" d="M364.7,82.7c-68.5,0-102.3,67.5-102.3,67.5s-33.8-67.5-102.3-67.5c-55.7,0-99.8,46.6-100.3,102.2
	c-1.2,115.4,91.5,197.4,193.1,266.4c5.7,3.9,13.3,3.9,19,0c101.6-69,194.3-151,193.1-266.4C464.4,129.3,420.3,82.7,364.7,82.7z"/>
</svg>
