<svg xmlns="http://www.w3.org/2000/svg" width="303" height="317" viewBox="0 0 303 317">
  <defs>
    <style>
      .cls-1 {
        fill-rule: evenodd;
      }
    </style>
  </defs>
  <path class="cls-1" d="M-47.97,295.1s6.862-1,7.86-6.987,0.468-21.521-9.606-36.679c-5.257-10.37-24.69-34.751-72.486-40.172-6-2.075-57.711-6.072-82.965,2.619-20.237,5.192-40.458,17.807-57.639,42.793-7.452,12.99-19.373,38.8,7.86,37.553C-164.335,295.582-47.97,295.1-47.97,295.1ZM-38,316c16.1-.1,24.147-3.992,29-18,1.7-8.219,1.469-21.785-8-44-7.791-13.142-20.279-47.73-86-64-30.757-6.987-78.231-7.3-114,2-36.755,10.431-61.386,33.679-77,66-10.814,19.2-17.8,52.933,13,57C-244.648,317.429-50.5,316.5-38,316ZM-156,25.191A58.809,58.809,0,0,1-97.191,84,58.809,58.809,0,0,1-156,142.809,58.809,58.809,0,0,1-214.809,84,58.809,58.809,0,0,1-156,25.191Zm0-25.3A84.107,84.107,0,0,1-71.893,84,84.107,84.107,0,0,1-156,168.107,84.107,84.107,0,0,1-240.107,84,84.107,84.107,0,0,1-156-.107Z"/>
  <path class="cls-1" d="M113.239,0C186.1-1.01,251.866,60.9,235.627,139.955A124.218,124.218,0,0,1,217.475,184.5c-3.758,4.858-3.516,5.9-7.274,10.76,25.3,28.043,59.377,65.6,84.678,93.644,4.431,5.286,14.2,17.036,2.08,25.928-8.537,5.171-17.086-3.029-22-8-25.025-27.86-59.652-65.784-84.678-93.644-4.491,3.116-5.438,3.662-9.93,6.778-12.2,7.405-26.627,12.742-43.18,15.673C49.959,251.086-24.6,162.13,7.352,78.089,20.622,43.186,46.84,16.61,83.535,5.224,92.6,2.411,102.5.062,113.239,0Zm-0.264,26a74.515,74.515,0,0,0-24.208,4.79C61.071,40.9,41.382,60.586,31.272,88.275c-22.483,61.576,32,130.881,94.311,122.523,38.656-5.184,64.6-24.215,77.921-54.455C233.82,87.52,180.54,25.647,112.975,26Z"/>
  <path class="cls-1" d="M359.141,100.67l1.411-19.755s0.038-9.562,11.289-8.467c12.662-.051,30.78.265,32.455,0,3.088-.5,5.036,1.012,11.289-5.644,19.788-19.831,63.543-63.464,63.5-63.5,0,0,5.2-3.087,7.055-2.822a53.786,53.786,0,0,1,5.645,0S495.5,0.621,497.429,3.3s63.5,62.089,63.5,62.089A17.554,17.554,0,0,0,575,73c4.958-.012,11.438.042,13,0,2.111,0.127,6.167-.978,0-8-13.341-13.158-32.862-31.822-32-31-7.232-8.908-10-2.893-16.238-1.063C532.927,34.569,524.214,32.966,526,23c1.944-7.092,15.616-13.644,18.73-15.626C549.2,4.03,557,6,557,6c5.418,3.547,37.914,38.914,56,57,4.321,5.2,11.649,9.912,15,10s22.622-.64,30.295-0.552c10.848-.441,11.024,9.172,11.289,9.878s1.751,76.007,16.933,218.721c0.882,8.29,3.374,15.2-7.055,15.522-4.771.479-318.028,1.058-325.966,1.411s-10.281-4.4-9.877-11.289C343.963,300.82,359.141,100.67,359.141,100.67Zm18.928,193.942c-4.711-.205-10.48,1.481-9.177-9.177C370.359,274.245,382,100.589,382,100.589s-0.32-9.621,10.487-9.176c10.808,0.936,242.528,0,242.528,0s10.652-1.065,10.488,7.866c-0.164,7.211,12.782,171,14.421,184.846-0.082,5.9,1.564,8.65-7.866,10.488C518.247,294.515,380.547,294.591,378.069,294.612Zm71.478-165.788c1.75,10.625,3.589,31.733,10.81,48.648,4.758,12.95,25.054,40.933,56.757,39.189C537.065,216.638,559.1,204.734,570,178c6.347-18.872,8-33.579,8-51,0.442-3.814-4.59-5.967-10-6-5.279-.032-11.61,1.919-12,6-2.7,18.006-2.928,48.345-22,62-12.812,7.16-21.253,7.773-34,1-10.29-6.711-21.963-14.963-28-63,1.255-3.2-6.516-6.881-11-6C454.309,120.434,450.547,123.2,449.547,128.824ZM464.63,72.17s-8.256-.018-11.537,0c-6.706.252-12.551-1.037-5.769-9.23,2.773-3,29.863-28.28,35.766-34.612,3.49-3.575,10.787-2.879,12.691,0,21.609,21.127,32.4,30.82,36.874,35.716,4.36,4.424,1.7,7.844-3.416,8.126-6.929.283-18.459,0-18.459,0H464.63Z"/>
</svg>
