<svg xmlns="http://www.w3.org/2000/svg" width="500" height="462" viewBox="0 0 500 462">
  <defs>
    <style>
      .cls-1 {
        fill: #c00;
        fill-rule: evenodd;
      }
    </style>
  </defs>
  <path class="cls-1" d="M126.732,0c41.947-.563,69.3,12.081,92.668,29.993,2.925,2.242,10.739,9.517,18.187,16.727,7.59,8.786,10.7,10.829,12.966,10.576,4.16,0.446,7.53-5.244,11.9-9.817,3.712-3.884,7.26-7.847,9.487-9.7,8.761-8.521,18.018-14.523,28.291-20.476C355.894-14.948,415.977,1.51,456.12,34.9c45.376,37.738,55.16,115.173,31.467,183.993-29.23,84.9-90.711,142.811-155.6,192.355-14.829,11.323-29.868,22.291-45.323,33.165-8.086,5.689-15.806,12.073-26.27,15.862-19.186,5.586-32.468-6.04-42.726-13.266-26.271-18.508-51.244-37.589-75.923-57.39C85.985,344.878,34.357,288.3,10.681,211.966-8.08,151.475-2.141,92.241,29.446,51.045,45.576,30.008,69.07,13.45,97.575,4.9A108.091,108.091,0,0,1,126.732,0Z"/>
</svg>
